<?xml version="1.0" encoding="utf-8"?>
<!-- Generator: Adobe Illustrator 21.0.0, SVG Export Plug-In . SVG Version: 6.00 Build 0)  -->
<svg version="1.1" id="图层_1" xmlns="http://www.w3.org/2000/svg" xmlns:xlink="http://www.w3.org/1999/xlink" x="0px" y="0px"
	 viewBox="0 0 954 298" style="enable-background:new 0 0 954 298;" xml:space="preserve">
<style type="text/css">
	.st0{fill:#FFFFFF;}
</style>
<g>
	<g>
		<path class="st0" d="M64.4,241.8l9.6-13.1c0.6-1.2,0.7-2.6,0.1-3.7c-0.8-1.2-1.8-1.9-3.3-1.9H53.1c4.1-3.2,8.1-6.4,12-9.8H79
			l0.9-5.6h-8.1c3-2.6,5.8-5.2,8.8-7.9v-9.5c-6.6,6-13.3,11.8-20,17.4h-0.4v-14.1h13.2L74,188H60.2v-9.8H45.4v9.8H32.9l-0.6,5.6
			h13.2v14.1h-15l-0.9,5.6h24.1c-4.2,3.4-8.5,6.6-12.7,9.8h-6.9l-1.1,5.6h0.1l-3.5,2.4v9.2c5.5-3.6,10.9-7.5,16.2-11.5h10.7
			c0.4,0,0.8,0.1,0.9,0.4c0.1,0.4,0.1,0.7,0,1l-7.1,10c-1.4,2.1-2.2,3.7-2.3,6l-17.3,1.3v5.7l17.3-1.3v11.1c0,2.2-1.2,3.5-3.3,3.5
			h-4.3v5.6h16c3.6,0,6.5-3,6.5-6.6v-14.7l16.5-1.3v-5.7L62.9,245C63,243.9,63.4,243,64.4,241.8z M100.6,178.1H87.8
			c-2.2,17-6.1,33.8-11.4,50h13.2c0.5-1.5,1.1-4.3,1.5-5.9c1.7,5.9,3.7,12.3,5.7,18c-4.4,10.7-9.9,21.7-16.3,31.9h14.8
			c2.8-4.5,6-10.7,8.5-15.8c2.3,5,5.5,11.2,8.2,15.8h14.1c-5.9-9.8-11-20.1-15.3-30.8c4.7-12.8,8.7-28.3,11.4-44.5h4.1l0.8-5.6H98.5
			C99.3,186.5,99.9,182.9,100.6,178.1z M109.5,196.7c-1.3,8-3.4,18.3-5.7,26.1c-2.3-7.9-5-17.6-5.9-26.1H109.5z M225.6,219.9h-67.3
			c-3.8,0-6.7,3-6.7,6.5v45.5l15.5-4.8v-8.2h49.8v3.7c0,2.1-1.7,3.7-3.9,3.7h-7.3l-1.5,5.6h21.4c3.8,0,6.7-3,6.7-6.5v-39
			C232.4,222.9,229.4,219.9,225.6,219.9z M216.9,253.3h-49.8v-11.6h49.8V253.3z M216.9,236h-49.8v-6.7c0-2.1,1.7-3.7,3.9-3.7h42
			c2.1,0,3.9,1.7,3.9,3.7V236z M199.7,178.5h-15.5v7.2h-39.5l-1,5.6h18L150,208.2c-0.9,1.3-1.4,2.8-0.8,4c0.7,1.4,2,2.3,3.6,2.3
			h78.4c1.5,0,2.8-0.8,3.5-2c0.7-1.4,0.5-2.8-0.3-3.9l-8.1-11.5h-15.6l6.3,8.8c0.4,0.7,0.5,1.4,0.2,2c-0.3,0.7-1,1.2-1.7,1.2h-45.9
			c-0.8,0-1.5-0.5-1.8-1.2c-0.2-0.7,0-1.4,0.3-2.1l10.4-14.4h61.8l0.8-5.6h-41.2V178.5z M313.9,224.5h-15.5v7.5h-39.6l-0.8,5.6h26.7
			c-7.8,9.2-16.9,18.2-26.6,25.6h19.8c2.5-1.9,5.5-4.3,8.6-7.4v9.5c0,3.6,3.2,6.5,6.8,6.5h24.9l-1.3-5.6h-11c-2.1,0-3.9-1.7-3.9-3.7
			v-15.3h-7.5c2.8-3.1,5.4-6.3,7.8-9.6h8.5c7.1,12.4,15.6,23.1,25.6,31.7h18.1c-4.1-3.7-7.7-7.5-11.2-11.2l10.4-15.1h-14.9l-3.8,5.2
			c-2.7-3.5-5.1-7-7.3-10.6h26.8l0.8-5.6h-41.3V224.5z M335.4,178.6H320v13.2h-18.1l-0.8,5.6h19v18.4h-15.2l-0.9,5.6h47.6l0.9-5.6
			h-17v-18.4h19l0.8-5.6h-19.8V178.6z M297.1,178.6h-15.5v44.8h15.5V178.6z M278.3,200.7h-14.4c-1,7.8-2.6,15-5.6,22.9h14.8
			C276,216.9,277.4,209.2,278.3,200.7z M278.3,196.6l-3.9-16.2h-14.7l4.2,16.2H278.3z M457.1,229.8h-72.8c-3.8,0-6.8,3.1-6.8,6.6
			v28.7c0,3.6,3.1,6.5,6.8,6.5h72.8c3.8,0,6.8-3,6.8-6.5v-28.7C463.9,232.8,460.9,229.8,457.1,229.8z M412.8,266h-16.1
			c-2.1,0-3.8-1.7-3.8-3.7v-8.8h19.9V266z M412.8,247.8H393v-8.7c0-2,1.6-3.7,3.8-3.7h16.1V247.8z M448.4,262.2
			c0,2.1-1.7,3.7-3.9,3.7h-16.2v-12.5h20.1V262.2z M448.4,247.8h-20.1v-12.4h16.2c2.1,0,3.9,1.8,3.9,3.7V247.8z M464.6,195.1
			c1.2-1.4,1.4-3.3,0.6-4.8c-0.9-1.7-2.4-2.7-4.4-2.7h-61.7c1.2-3,2.3-6,3.5-9.1h-15.7c-3.6,9.9-8.5,19.9-14.2,30.2h16.1l1.8-3.3
			c4.2,3.2,8.9,5.9,14.1,8.3c-10,2.1-20.8,3.2-32.2,3.8v9.9c19.7-1.1,36.2-3.4,50-7.3c12.8,3.6,28,5.9,46.3,7.3v-9.9
			c-10.4-0.8-20-2-28.9-3.7C450.3,209,458.3,202.8,464.6,195.1z M422.4,209c-9.7-3.5-18.4-8.3-26-15c0.2-0.3,0.3-0.6,0.4-0.9H449
			C441.5,200.3,432.5,205.3,422.4,209z M558,178.6h-15.8c-1.8,9.3-4.9,18-8.7,26.5h16c1.9-4.2,3.6-8.8,5-13.4h3.9l5,13.8h15.5
			l-5-13.8h8.7l1.2-5.6H556C556.8,183.6,557.4,181.1,558,178.6z M575.2,212.7h-33.1v-5.5h-15.5v5.5h-33.2c-3.7,0-6.7,3-6.7,6.5v10.9
			h7.8c-0.2,0.6-0.3,1.3-0.3,2v34c0,3.2,2.5,5.6,5.8,5.6h72.1c3.2,0,5.7-2.5,5.7-5.6v-8.9c0-3.1-2.5-5.6-5.7-5.6h-62.4v-6h57
			c3.3,0,5.8-2.6,5.8-5.6V232c0-0.7-0.1-1.4-0.4-2h10v-10.9C581.9,215.7,579,212.7,575.2,212.7z M560.3,257.2c1,0,1.9,0.8,1.9,1.9
			v5.1c0,1.1-0.9,1.9-1.9,1.9h-48.8c-1.1,0-1.9-0.8-1.9-1.9v-7H560.3z M556.6,238.1c0,1.1-0.8,1.9-1.9,1.9h-45.1v-6
			c0-1,0.8-1.9,1.9-1.9h43.1c1.1,0,1.9,0.9,1.9,1.9V238.1z M566.4,226.4h-64.3v-4.3c0-2.1,1.7-3.7,3.9-3.7h56.6
			c2.1,0,3.9,1.7,3.9,3.7V226.4z M507.3,191.7h3.9l5,13.4h15.5l-5-13.4h8.9l1.2-5.6h-27.9l2-7.5h-15.8c-2,9.5-5.2,18.2-9.2,26.9h16
			C504.1,201.1,505.8,196.5,507.3,191.7z M672.4,249.4h22.5l0.8-5.6h-23.4v-14.1h14.7c3.9,0,7.2-2.9,7.2-6.5v-35.8
			c0-3.5-3.4-6.6-7.2-6.6h-45.6c-4,0-7.2,3.1-7.2,6.6v35.8c0,3.6,3.3,6.5,7.2,6.5H656v14.1h-21.6l-0.8,5.6H656v16.3h-24l-0.7,5.6
			h65.9l0.5-5.6h-25.3V249.4z M672.4,186.4h3.7c1.6,0,3.1,1.3,3.1,2.9v13.2h-6.7V186.4z M672.4,208.2h6.7v13.1
			c0,1.6-1.4,2.8-3.1,2.8h-3.7V208.2z M656,224.1h-3.6c-1.7,0-3-1.2-3-2.8v-13.1h6.5V224.1z M656,202.5h-6.5v-13.2
			c0-1.6,1.2-2.9,3-2.9h3.6V202.5z M622.4,229.3h5.3l0.6-5.6h-5.9v-31h6.6l0.6-5.6h-28l-0.6,5.6h6.5v31h-4.7l-0.5,5.6h5.2v31.9
			l-6.5,0.5l-0.7,5.7l29.3-2l0.9-5.6l-8.2,0.5V229.3z M785.6,240.8c3,11.5,6.2,21.9,10.4,31.1h15.5c-4.4-10-8.1-20.1-10.4-31.1
			H785.6z M808.8,229.1v-12.2h-15.5v9.4c0,2.1-1.7,3.7-3.9,3.7h-32.3l31.6-34.3h-18l-12.7,13.7h-18.8l19.2-21.5h36.5
			c8.7,0,13.2-2.9,14.7-9.4h-17.9c-2,3.5-5.1,3.8-10.9,3.8h-62.5l-1,5.5h23.8l-17.1,19.2c-1.2,1.4-1.5,3.4-0.7,5
			c0.8,1.7,2.4,2.8,4.4,2.8h25.3l-14,15.1h-20.4l-1.4,5.6h38.5v26.8c0,2.1-1.7,3.7-3.9,3.7h-5.4l-1.6,5.6h19.5c3.8,0,6.8-3,6.8-6.5
			v-29.7H802C805.8,235.6,808.8,232.7,808.8,229.1z M714.9,271.9h15.5c4.2-9.2,7.4-19.5,10.4-31.1h-15.5
			C722.9,251.8,719.2,261.9,714.9,271.9z M914.4,262.4v-30.8h6.8c1.3,0,2.5-0.5,3.2-1.7c0.7-1,0.8-2.2,0.3-3.5l-6.7-16.1h-16.8
			l5.5,13.1c0.3,0.5,0.2,1.2-0.1,1.7c-0.4,0.6-1,0.8-1.6,0.8h-16.3c-0.6,0-1.1-0.2-1.5-0.8c-0.4-0.5-0.5-1.2-0.2-1.7l12.8-30.2h25.6
			l0.7-5.6h-21.7v-9.7H889v9.7h-20.5l-0.7,5.6h14.8l-14.2,33.1c-0.5,1.3-0.3,2.5,0.3,3.5c0.8,1.2,1.9,1.7,3.4,1.7h6.1
			c-1.5,13.8-5,27.8-10.4,40.2h16.6c4.9-13,7.8-26.7,9-40.2h5.8v33.6c0,3.7,2.9,6.6,6.5,6.6h19.6l0.7-5.6h-7.8
			C916.1,266.3,914.4,264.6,914.4,262.4z M829.2,271.7l35.1-2l1-5.6l-34.7,2L829.2,271.7z M867.1,201.1h-14.5
			c-1.4,5.7-3.1,11.6-5.1,17.6h-1.4c-0.3,0-0.6-0.1-0.8-0.3c-0.2-0.2-0.2-0.5-0.1-0.8c4.3-11.7,8-28.3,9.8-39.5h-15.3
			c-1.9,13.5-6.3,30-10.8,42.6c-0.3,0.9-0.1,1.8,0.5,2.5c0.5,0.8,1.2,1.1,2.1,1.1h14.1c-3.8,10.6-8.5,21.1-13.5,31.3
			c-0.3,0.8-0.2,1.8,0.4,2.5c0.6,0.9,1.3,1.3,2.3,1.3l29.1-0.1l1.4-5.6h-14.1c-0.3,0-0.5-0.1-0.7-0.4c-0.2-0.3-0.2-0.6-0.1-0.9
			C856.1,240.3,863.1,219.4,867.1,201.1z"/>
	</g>
</g>
<g>
	<g>
		<path class="st0" d="M295.5,80.6c-1.7,14.4-5.1,25.4-10,37.9h14.5c4.9-10.1,7.9-23.8,9.9-37.9H295.5z M288.8,50.7l6.5,22.7h14.5
			l-6.3-22.7H288.8z M308.6,44.5l-6.3-21.1h-14.6l6.2,21.1H308.6z M363.8,31.1H350v81.3l13.7-6.3V31.1z M344.7,39.6h3.1l0.5-5.8
			h-11.9V23.5h-14.8v10.4h-10.8l-0.5,5.8h19.8c-0.7,5.5-1.5,10.8-2.4,16l-2.9-8.9h-13.7l10.9,33.4c-3.7,13.1-8,25.7-12.6,38.2h15
			c1.8-5,3.6-9.9,5.2-14.8l4.9,14.8h14l-12.3-37C339.5,68.6,342.3,55.1,344.7,39.6z M366.8,108.9c0,2.1-1.7,3.8-3.9,3.8h-4.4
			l-2.6,5.7h18.9c3.8,0,6.5-2.9,6.5-6.6V23.5h-14.5V108.9z M517.4,26.1h-32.1c-4,0-7.1,3-7.1,6.7V111c0,3.8,3.1,6.8,7.1,6.8h32.1
			c4,0,7.1-3,7.1-6.8V32.8C524.5,29.1,521.4,26.1,517.4,26.1z M509.1,108.2c0,2.1-1.8,3.8-4.1,3.8h-7.4c-2.1,0-4-1.7-4-3.8V76.6
			h15.4V108.2z M509.1,70.9h-15.4V35.6c0-2.1,1.8-3.8,4-3.8h7.4c2.2,0,4.1,1.7,4.1,3.8V70.9z M465.4,25.4h-35.1v118l15.4-25V31.1
			h6.9c2.2,0,4.5,1.7,4.2,3.8l-6.1,34.1h3.4c2.2,0,2.8,0.6,2.8,2.7v28.7c0,2.1-0.6,2.8-2.8,2.8h-4.4l-1.1,5.7H465
			c4,0,7.2-3.1,7.2-6.7V69.8c0-2.9-2.1-5.4-5.1-6.2l5.5-31.7C473,28.4,469.5,25.4,465.4,25.4z M630.2,34.7l-1.7-10.6h-15.9l1.7,10.6
			H630.2z M669.4,43.2l0.5-5.7h-96.1l-0.5,5.7h40.3v12.2h-27.8c-3.8,0-6.7,3-6.7,6.6v49.5l15.4-6.2V64.8c0-2.1,1.7-3.8,3.9-3.8h15.2
			v82.4l15.4-25V61h15.2c2.1,0,3.9,1.7,3.9,3.8v37.3c0,2.1-1.7,3.7-3.9,3.7h-3.6l-0.7,5.7h16.9c3.7,0,6.7-3,6.7-6.7V62
			c0-3.6-3-6.6-6.7-6.6h-27.8V43.2H669.4z"/>
	</g>
</g>
</svg>
